<?xml version="1.0" encoding="UTF-8"?>
<mxfile host="app.diagrams.net" agent="Mozilla/5.0 (Macintosh; Intel Mac OS X 10_15_7) AppleWebKit/537.36 (KHTML, like Gecko) Chrome/139.0.0.0 Safari/537.36" version="28.1.0">
  <diagram id="EcSsJXQrIgXZIAfyThCb" name="Component Diagram - Система передачи ставок">
    <mxGraphModel dx="2211" dy="1280" grid="1" gridSize="10" guides="1" tooltips="1" connect="1" arrows="1" fold="1" page="1" pageScale="1" pageWidth="827" pageHeight="1169" math="0" shadow="0">
      <root>
        <mxCell id="0" />
        <mxCell id="1" parent="0" />
        <mxCell id="Hik9sB5s8pFp-YXe4FtW-2" value="Диаграмма компонентов - Система передачи ставок в кол-центр" style="text;html=1;align=center;verticalAlign=middle;whiteSpace=wrap;rounded=0;fontSize=24;fontStyle=1;" vertex="1" parent="1">
          <mxGeometry x="280" y="280" width="1200" height="60" as="geometry" />
        </mxCell>
        <mxCell id="Hik9sB5s8pFp-YXe4FtW-3" value="Система передачи ставок (Rates Transfer System)" style="text;html=1;align=center;verticalAlign=middle;whiteSpace=wrap;rounded=0;fontSize=18;fontStyle=1;fillColor=#dae8fc;strokeColor=#6c8ebf;" vertex="1" parent="1">
          <mxGeometry x="640" y="410" width="400" height="40" as="geometry" />
        </mxCell>
        <mxCell id="Hik9sB5s8pFp-YXe4FtW-4" value="Rates Service&lt;div&gt;(Java Spring Boot)&lt;/div&gt;&lt;div&gt;Обработка и кэширование ставок&lt;/div&gt;" style="rounded=1;whiteSpace=wrap;html=1;fillColor=#d5e8d4;strokeColor=#82b366;fontSize=14;" vertex="1" parent="1">
          <mxGeometry x="620" y="510" width="180" height="80" as="geometry" />
        </mxCell>
        <mxCell id="Hik9sB5s8pFp-YXe4FtW-5" value="Cache (Redis)&lt;div&gt;(Redis 6.x)&lt;/div&gt;&lt;div&gt;Кэширование ставок&lt;/div&gt;" style="rounded=1;whiteSpace=wrap;html=1;fillColor=#d5e8d4;strokeColor=#82b366;fontSize=14;" vertex="1" parent="1">
          <mxGeometry x="1020" y="510" width="180" height="80" as="geometry" />
        </mxCell>
        <mxCell id="Hik9sB5s8pFp-YXe4FtW-6" value="API Gateway&lt;div&gt;(Spring Cloud Gateway)&lt;/div&gt;&lt;div&gt;Polling АБС, роутинг&lt;/div&gt;" style="rounded=1;whiteSpace=wrap;html=1;fillColor=#d5e8d4;strokeColor=#82b366;fontSize=14;" vertex="1" parent="1">
          <mxGeometry x="350" y="510" width="180" height="80" as="geometry" />
        </mxCell>
        <mxCell id="Hik9sB5s8pFp-YXe4FtW-7" value="SFTP Gateway&lt;div&gt;(Apache Camel)&lt;/div&gt;&lt;div&gt;Передача файлов партнерам&lt;/div&gt;" style="rounded=1;whiteSpace=wrap;html=1;fillColor=#d5e8d4;strokeColor=#82b366;fontSize=14;" vertex="1" parent="1">
          <mxGeometry x="1020" y="640" width="180" height="80" as="geometry" />
        </mxCell>
        <mxCell id="Hik9sB5s8pFp-YXe4FtW-8" value="Monitoring Service&lt;div&gt;(Prometheus + Grafana)&lt;/div&gt;&lt;div&gt;Мониторинг и алерты&lt;/div&gt;" style="rounded=1;whiteSpace=wrap;html=1;fillColor=#d5e8d4;strokeColor=#82b366;fontSize=14;" vertex="1" parent="1">
          <mxGeometry x="1020" y="750" width="180" height="80" as="geometry" />
        </mxCell>
        <mxCell id="Hik9sB5s8pFp-YXe4FtW-9" value="Database&lt;div&gt;(PostgreSQL)&lt;/div&gt;&lt;div&gt;Хранение истории ставок&lt;/div&gt;" style="rounded=1;whiteSpace=wrap;html=1;fillColor=#d5e8d4;strokeColor=#82b366;fontSize=14;" vertex="1" parent="1">
          <mxGeometry x="620" y="830" width="180" height="80" as="geometry" />
        </mxCell>
        <mxCell id="Hik9sB5s8pFp-YXe4FtW-10" value="АБС&lt;div&gt;(Delphi + Oracle)&lt;/div&gt;" style="rounded=1;whiteSpace=wrap;html=1;fillColor=#ffe6cc;strokeColor=#d79b00;fontSize=14;" vertex="1" parent="1">
          <mxGeometry x="720" y="970" width="150" height="80" as="geometry" />
        </mxCell>
        <mxCell id="Hik9sB5s8pFp-YXe4FtW-11" value="Система кол-центра&lt;div&gt;(React.js + Spring Boot)&lt;/div&gt;" style="rounded=1;whiteSpace=wrap;html=1;fillColor=#f8cecc;strokeColor=#b85450;fontSize=14;" vertex="1" parent="1">
          <mxGeometry x="1410" y="960" width="150" height="80" as="geometry" />
        </mxCell>
        <mxCell id="Hik9sB5s8pFp-YXe4FtW-12" value="Партнерский кол-центр&lt;div&gt;(внешняя система)&lt;/div&gt;" style="rounded=1;whiteSpace=wrap;html=1;fillColor=#e1d5e7;strokeColor=#9673a6;fontSize=14;" vertex="1" parent="1">
          <mxGeometry x="1030" y="960" width="150" height="80" as="geometry" />
        </mxCell>
        <mxCell id="Hik9sB5s8pFp-YXe4FtW-13" value="Redis API" style="edgeStyle=orthogonalEdgeStyle;rounded=0;orthogonalLoop=1;jettySize=auto;html=1;fontSize=12;" edge="1" parent="1" source="Hik9sB5s8pFp-YXe4FtW-4" target="Hik9sB5s8pFp-YXe4FtW-5">
          <mxGeometry relative="1" as="geometry" />
        </mxCell>
        <mxCell id="Hik9sB5s8pFp-YXe4FtW-14" value="REST API" style="edgeStyle=orthogonalEdgeStyle;rounded=0;orthogonalLoop=1;jettySize=auto;html=1;fontSize=12;" edge="1" parent="1" source="Hik9sB5s8pFp-YXe4FtW-6" target="Hik9sB5s8pFp-YXe4FtW-4">
          <mxGeometry relative="1" as="geometry" />
        </mxCell>
        <mxCell id="Hik9sB5s8pFp-YXe4FtW-15" value="REST API" style="edgeStyle=orthogonalEdgeStyle;rounded=0;orthogonalLoop=1;jettySize=auto;html=1;fontSize=12;entryX=1;entryY=0.75;entryDx=0;entryDy=0;" edge="1" parent="1" source="Hik9sB5s8pFp-YXe4FtW-7" target="Hik9sB5s8pFp-YXe4FtW-4">
          <mxGeometry relative="1" as="geometry" />
        </mxCell>
        <mxCell id="Hik9sB5s8pFp-YXe4FtW-16" value="HTTP API" style="edgeStyle=orthogonalEdgeStyle;rounded=0;orthogonalLoop=1;jettySize=auto;html=1;fontSize=12;entryX=0.75;entryY=1;entryDx=0;entryDy=0;" edge="1" parent="1" source="Hik9sB5s8pFp-YXe4FtW-8" target="Hik9sB5s8pFp-YXe4FtW-4">
          <mxGeometry relative="1" as="geometry" />
        </mxCell>
        <mxCell id="Hik9sB5s8pFp-YXe4FtW-17" value="JDBC" style="edgeStyle=orthogonalEdgeStyle;rounded=0;orthogonalLoop=1;jettySize=auto;html=1;fontSize=12;" edge="1" parent="1" source="Hik9sB5s8pFp-YXe4FtW-4" target="Hik9sB5s8pFp-YXe4FtW-9">
          <mxGeometry relative="1" as="geometry" />
        </mxCell>
        <mxCell id="Hik9sB5s8pFp-YXe4FtW-18" value="HTTP API&lt;div&gt;(Polling)&lt;/div&gt;" style="edgeStyle=orthogonalEdgeStyle;rounded=0;orthogonalLoop=1;jettySize=auto;html=1;fontSize=12;strokeColor=#d73027;strokeWidth=2;" edge="1" parent="1" source="Hik9sB5s8pFp-YXe4FtW-6" target="Hik9sB5s8pFp-YXe4FtW-10">
          <mxGeometry relative="1" as="geometry">
            <Array as="points">
              <mxPoint x="270" y="550" />
              <mxPoint x="270" y="1010" />
            </Array>
          </mxGeometry>
        </mxCell>
        <mxCell id="Hik9sB5s8pFp-YXe4FtW-19" value="REST API&lt;div&gt;(HTTPS)&lt;/div&gt;" style="edgeStyle=orthogonalEdgeStyle;rounded=0;orthogonalLoop=1;jettySize=auto;html=1;fontSize=12;strokeColor=#4575b4;strokeWidth=2;exitX=0.5;exitY=0;exitDx=0;exitDy=0;entryX=0.5;entryY=0;entryDx=0;entryDy=0;" edge="1" parent="1" source="Hik9sB5s8pFp-YXe4FtW-4" target="Hik9sB5s8pFp-YXe4FtW-11">
          <mxGeometry relative="1" as="geometry">
            <Array as="points">
              <mxPoint x="710" y="490" />
              <mxPoint x="1485" y="490" />
            </Array>
          </mxGeometry>
        </mxCell>
        <mxCell id="Hik9sB5s8pFp-YXe4FtW-20" value="SFTP&lt;div&gt;(SSH)&lt;/div&gt;" style="edgeStyle=orthogonalEdgeStyle;rounded=0;orthogonalLoop=1;jettySize=auto;html=1;fontSize=12;strokeColor=#1a9850;strokeWidth=2;" edge="1" parent="1" source="Hik9sB5s8pFp-YXe4FtW-7" target="Hik9sB5s8pFp-YXe4FtW-12">
          <mxGeometry relative="1" as="geometry">
            <Array as="points">
              <mxPoint x="1300" y="680" />
              <mxPoint x="1300" y="1000" />
            </Array>
          </mxGeometry>
        </mxCell>
        <mxCell id="Hik9sB5s8pFp-YXe4FtW-22" value="" style="text;html=1;align=center;verticalAlign=middle;whiteSpace=wrap;rounded=0;fontSize=18;fontStyle=1;fillColor=#dae8fc;strokeColor=#6c8ebf;opacity=20;" vertex="1" parent="1">
          <mxGeometry x="320" y="490" width="940" height="430" as="geometry" />
        </mxCell>
      </root>
    </mxGraphModel>
  </diagram>
</mxfile>
